<svg id="visual" viewBox="0 0 1920 1080" width="1920" height="1080" xmlns="http://www.w3.org/2000/svg" xmlns:xlink="http://www.w3.org/1999/xlink" version="1.1"><g stroke-width="1" stroke-linejoin="bevel"><path d="M897 589L873 503L756 617Z" fill="#1d1d1d" stroke="#303030"></path><path d="M873 503L789 459L756 617Z" fill="#1f1f1f" stroke="#303030"></path><path d="M789 459L661 506L756 617Z" fill="#1d1d1d" stroke="#303030"></path><path d="M661 506L643 602L756 617Z" fill="#1c1c1c" stroke="#303030"></path><path d="M643 602L741 743L756 617Z" fill="#1c1c1c" stroke="#303030"></path><path d="M756 617L909 739L897 589Z" fill="#1f1f1f" stroke="#303030"></path><path d="M741 743L909 739L756 617Z" fill="#1f1f1f" stroke="#303030"></path><path d="M917 384L748 381L789 459Z" fill="#1e1e1e" stroke="#303030"></path><path d="M789 459L748 381L661 506Z" fill="#1c1c1c" stroke="#303030"></path><path d="M1008 464L917 384L873 503Z" fill="#1c1c1c" stroke="#303030"></path><path d="M873 503L917 384L789 459Z" fill="#1d1d1d" stroke="#303030"></path><path d="M1008 464L873 503L897 589Z" fill="#1d1d1d" stroke="#303030"></path><path d="M1036 577L1008 464L897 589Z" fill="#1c1c1c" stroke="#303030"></path><path d="M909 739L1036 577L897 589Z" fill="#1f1f1f" stroke="#303030"></path><path d="M643 602L633 739L741 743Z" fill="#1d1d1d" stroke="#303030"></path><path d="M617 818L757 812L741 743Z" fill="#1d1d1d" stroke="#303030"></path><path d="M741 743L757 812L909 739Z" fill="#1d1d1d" stroke="#303030"></path><path d="M1008 464L1011 381L917 384Z" fill="#1f1f1f" stroke="#303030"></path><path d="M638 215L623 344L748 381Z" fill="#1c1c1c" stroke="#303030"></path><path d="M1125 376L1011 381L1008 464Z" fill="#1d1d1d" stroke="#303030"></path><path d="M757 812L882 829L909 739Z" fill="#1e1e1e" stroke="#303030"></path><path d="M909 739L1032 743L1036 577Z" fill="#1f1f1f" stroke="#303030"></path><path d="M1024 849L1032 743L909 739Z" fill="#1d1d1d" stroke="#303030"></path><path d="M870 242L748 381L917 384Z" fill="#1c1c1c" stroke="#303030"></path><path d="M748 381L623 344L661 506Z" fill="#1d1d1d" stroke="#303030"></path><path d="M496 614L539 713L643 602Z" fill="#1c1c1c" stroke="#303030"></path><path d="M643 602L539 713L633 739Z" fill="#1e1e1e" stroke="#303030"></path><path d="M496 614L643 602L502 480Z" fill="#1d1d1d" stroke="#303030"></path><path d="M633 739L617 818L741 743Z" fill="#1e1e1e" stroke="#303030"></path><path d="M539 713L617 818L633 739Z" fill="#1e1e1e" stroke="#303030"></path><path d="M768 975L881 968L882 829Z" fill="#1c1c1c" stroke="#303030"></path><path d="M1007 236L870 242L917 384Z" fill="#1e1e1e" stroke="#303030"></path><path d="M502 480L643 602L661 506Z" fill="#1d1d1d" stroke="#303030"></path><path d="M623 344L502 480L661 506Z" fill="#1d1d1d" stroke="#303030"></path><path d="M881 968L1024 849L882 829Z" fill="#1e1e1e" stroke="#303030"></path><path d="M882 829L1024 849L909 739Z" fill="#1d1d1d" stroke="#303030"></path><path d="M870 242L790 214L748 381Z" fill="#1c1c1c" stroke="#303030"></path><path d="M1164 721L1174 576L1036 577Z" fill="#1e1e1e" stroke="#303030"></path><path d="M1036 577L1163 453L1008 464Z" fill="#1f1f1f" stroke="#303030"></path><path d="M1164 721L1036 577L1032 743Z" fill="#1e1e1e" stroke="#303030"></path><path d="M1163 453L1125 376L1008 464Z" fill="#1d1d1d" stroke="#303030"></path><path d="M1011 381L1007 236L917 384Z" fill="#1d1d1d" stroke="#303030"></path><path d="M1174 576L1163 453L1036 577Z" fill="#1d1d1d" stroke="#303030"></path><path d="M539 245L509 373L623 344Z" fill="#1d1d1d" stroke="#303030"></path><path d="M623 344L509 373L502 480Z" fill="#1e1e1e" stroke="#303030"></path><path d="M1125 376L1007 236L1011 381Z" fill="#1e1e1e" stroke="#303030"></path><path d="M873 103L767 130L790 214Z" fill="#1d1d1d" stroke="#303030"></path><path d="M1157 867L1164 721L1032 743Z" fill="#1c1c1c" stroke="#303030"></path><path d="M790 214L638 215L748 381Z" fill="#1c1c1c" stroke="#303030"></path><path d="M539 713L519 839L617 818Z" fill="#1f1f1f" stroke="#303030"></path><path d="M768 975L882 829L757 812Z" fill="#1d1d1d" stroke="#303030"></path><path d="M392 722L519 839L539 713Z" fill="#1f1f1f" stroke="#303030"></path><path d="M768 975L757 812L637 949Z" fill="#1c1c1c" stroke="#303030"></path><path d="M637 949L757 812L617 818Z" fill="#1c1c1c" stroke="#303030"></path><path d="M638 215L539 245L623 344Z" fill="#1c1c1c" stroke="#303030"></path><path d="M519 839L637 949L617 818Z" fill="#1d1d1d" stroke="#303030"></path><path d="M509 373L393 468L502 480Z" fill="#1f1f1f" stroke="#303030"></path><path d="M502 480L367 584L496 614Z" fill="#1f1f1f" stroke="#303030"></path><path d="M496 614L392 722L539 713Z" fill="#1e1e1e" stroke="#303030"></path><path d="M404 365L393 468L509 373Z" fill="#1c1c1c" stroke="#303030"></path><path d="M790 214L767 130L638 215Z" fill="#1d1d1d" stroke="#303030"></path><path d="M638 215L614 113L539 245Z" fill="#1e1e1e" stroke="#303030"></path><path d="M873 103L790 214L870 242Z" fill="#1c1c1c" stroke="#303030"></path><path d="M1164 721L1263 573L1174 576Z" fill="#1c1c1c" stroke="#303030"></path><path d="M1174 576L1263 573L1163 453Z" fill="#1e1e1e" stroke="#303030"></path><path d="M1295 378L1135 230L1125 376Z" fill="#1d1d1d" stroke="#303030"></path><path d="M393 468L367 584L502 480Z" fill="#1f1f1f" stroke="#303030"></path><path d="M1016 976L1157 867L1024 849Z" fill="#1e1e1e" stroke="#303030"></path><path d="M1024 849L1157 867L1032 743Z" fill="#1c1c1c" stroke="#303030"></path><path d="M1164 721L1291 736L1263 573Z" fill="#1d1d1d" stroke="#303030"></path><path d="M367 584L392 722L496 614Z" fill="#1c1c1c" stroke="#303030"></path><path d="M519 839L533 961L637 949Z" fill="#1f1f1f" stroke="#303030"></path><path d="M881 968L1016 976L1024 849Z" fill="#1e1e1e" stroke="#303030"></path><path d="M877 1080L1016 976L881 968Z" fill="#1e1e1e" stroke="#303030"></path><path d="M1125 376L1135 230L1007 236Z" fill="#1c1c1c" stroke="#303030"></path><path d="M1007 236L873 103L870 242Z" fill="#1c1c1c" stroke="#303030"></path><path d="M1295 378L1125 376L1163 453Z" fill="#1c1c1c" stroke="#303030"></path><path d="M539 245L404 365L509 373Z" fill="#1f1f1f" stroke="#303030"></path><path d="M393 468L282 452L367 584Z" fill="#1c1c1c" stroke="#303030"></path><path d="M1043 101L873 103L1007 236Z" fill="#1d1d1d" stroke="#303030"></path><path d="M1263 573L1292 482L1163 453Z" fill="#1f1f1f" stroke="#303030"></path><path d="M401 965L533 961L519 839Z" fill="#1c1c1c" stroke="#303030"></path><path d="M653 1080L779 1080L768 975Z" fill="#1e1e1e" stroke="#303030"></path><path d="M658 0L614 113L767 130Z" fill="#1d1d1d" stroke="#303030"></path><path d="M767 130L614 113L638 215Z" fill="#1f1f1f" stroke="#303030"></path><path d="M539 245L380 223L404 365Z" fill="#1f1f1f" stroke="#303030"></path><path d="M1299 818L1291 736L1164 721Z" fill="#1e1e1e" stroke="#303030"></path><path d="M1421 590L1384 457L1292 482Z" fill="#1d1d1d" stroke="#303030"></path><path d="M392 722L383 819L519 839Z" fill="#1c1c1c" stroke="#303030"></path><path d="M252 829L383 819L392 722Z" fill="#1c1c1c" stroke="#303030"></path><path d="M1384 457L1295 378L1292 482Z" fill="#1d1d1d" stroke="#303030"></path><path d="M1292 482L1295 378L1163 453Z" fill="#1f1f1f" stroke="#303030"></path><path d="M1141 136L1043 101L1135 230Z" fill="#1d1d1d" stroke="#303030"></path><path d="M1135 230L1043 101L1007 236Z" fill="#1c1c1c" stroke="#303030"></path><path d="M653 1080L768 975L637 949Z" fill="#1d1d1d" stroke="#303030"></path><path d="M768 975L779 1080L881 968Z" fill="#1f1f1f" stroke="#303030"></path><path d="M779 1080L877 1080L881 968Z" fill="#1e1e1e" stroke="#303030"></path><path d="M1297 240L1141 136L1135 230Z" fill="#1e1e1e" stroke="#303030"></path><path d="M513 0L531 112L614 113Z" fill="#1d1d1d" stroke="#303030"></path><path d="M614 113L531 112L539 245Z" fill="#1f1f1f" stroke="#303030"></path><path d="M499 1080L653 1080L533 961Z" fill="#1e1e1e" stroke="#303030"></path><path d="M533 961L653 1080L637 949Z" fill="#1c1c1c" stroke="#303030"></path><path d="M1157 867L1299 818L1164 721Z" fill="#1e1e1e" stroke="#303030"></path><path d="M1421 590L1292 482L1263 573Z" fill="#1d1d1d" stroke="#303030"></path><path d="M1284 951L1299 818L1157 867Z" fill="#1d1d1d" stroke="#303030"></path><path d="M1175 979L1157 867L1016 976Z" fill="#1c1c1c" stroke="#303030"></path><path d="M1046 1080L1175 979L1016 976Z" fill="#1d1d1d" stroke="#303030"></path><path d="M253 343L282 452L404 365Z" fill="#1e1e1e" stroke="#303030"></path><path d="M404 365L282 452L393 468Z" fill="#1d1d1d" stroke="#303030"></path><path d="M367 584L237 696L392 722Z" fill="#1e1e1e" stroke="#303030"></path><path d="M531 112L380 223L539 245Z" fill="#1d1d1d" stroke="#303030"></path><path d="M877 1080L1046 1080L1016 976Z" fill="#1f1f1f" stroke="#303030"></path><path d="M912 0L773 0L873 103Z" fill="#1e1e1e" stroke="#303030"></path><path d="M873 103L773 0L767 130Z" fill="#1c1c1c" stroke="#303030"></path><path d="M912 0L873 103L1043 101Z" fill="#1f1f1f" stroke="#303030"></path><path d="M1009 0L912 0L1043 101Z" fill="#1f1f1f" stroke="#303030"></path><path d="M1382 731L1263 573L1291 736Z" fill="#1c1c1c" stroke="#303030"></path><path d="M1295 378L1297 240L1135 230Z" fill="#1f1f1f" stroke="#303030"></path><path d="M1421 339L1297 240L1295 378Z" fill="#1c1c1c" stroke="#303030"></path><path d="M252 829L401 965L383 819Z" fill="#1e1e1e" stroke="#303030"></path><path d="M383 819L401 965L519 839Z" fill="#1d1d1d" stroke="#303030"></path><path d="M773 0L658 0L767 130Z" fill="#1c1c1c" stroke="#303030"></path><path d="M531 112L401 105L380 223Z" fill="#1d1d1d" stroke="#303030"></path><path d="M1388 863L1382 731L1299 818Z" fill="#1f1f1f" stroke="#303030"></path><path d="M1299 818L1382 731L1291 736Z" fill="#1c1c1c" stroke="#303030"></path><path d="M282 452L231 582L367 584Z" fill="#1d1d1d" stroke="#303030"></path><path d="M1151 0L1043 101L1141 136Z" fill="#1c1c1c" stroke="#303030"></path><path d="M1151 0L1009 0L1043 101Z" fill="#1f1f1f" stroke="#303030"></path><path d="M231 582L237 696L367 584Z" fill="#1e1e1e" stroke="#303030"></path><path d="M1382 731L1421 590L1263 573Z" fill="#1f1f1f" stroke="#303030"></path><path d="M1175 979L1284 951L1157 867Z" fill="#1c1c1c" stroke="#303030"></path><path d="M1283 1080L1284 951L1175 979Z" fill="#1d1d1d" stroke="#303030"></path><path d="M401 965L499 1080L533 961Z" fill="#1d1d1d" stroke="#303030"></path><path d="M268 267L253 343L404 365Z" fill="#1e1e1e" stroke="#303030"></path><path d="M282 452L144 495L231 582Z" fill="#1e1e1e" stroke="#303030"></path><path d="M1046 1080L1158 1080L1175 979Z" fill="#1d1d1d" stroke="#303030"></path><path d="M513 0L401 105L531 112Z" fill="#1c1c1c" stroke="#303030"></path><path d="M380 223L268 267L404 365Z" fill="#1d1d1d" stroke="#303030"></path><path d="M237 696L252 829L392 722Z" fill="#1f1f1f" stroke="#303030"></path><path d="M401 965L402 1080L499 1080Z" fill="#1e1e1e" stroke="#303030"></path><path d="M247 115L268 267L380 223Z" fill="#1e1e1e" stroke="#303030"></path><path d="M658 0L513 0L614 113Z" fill="#1f1f1f" stroke="#303030"></path><path d="M1402 976L1388 863L1284 951Z" fill="#1d1d1d" stroke="#303030"></path><path d="M1284 951L1388 863L1299 818Z" fill="#1d1d1d" stroke="#303030"></path><path d="M1382 731L1513 606L1421 590Z" fill="#1d1d1d" stroke="#303030"></path><path d="M1384 457L1421 339L1295 378Z" fill="#1e1e1e" stroke="#303030"></path><path d="M1297 240L1281 109L1141 136Z" fill="#1f1f1f" stroke="#303030"></path><path d="M1518 333L1421 339L1384 457Z" fill="#1f1f1f" stroke="#303030"></path><path d="M1404 96L1281 109L1297 240Z" fill="#1f1f1f" stroke="#303030"></path><path d="M1281 109L1151 0L1141 136Z" fill="#1e1e1e" stroke="#303030"></path><path d="M245 1080L402 1080L401 965Z" fill="#1f1f1f" stroke="#303030"></path><path d="M106 376L144 495L253 343Z" fill="#1e1e1e" stroke="#303030"></path><path d="M253 343L144 495L282 452Z" fill="#1d1d1d" stroke="#303030"></path><path d="M231 582L153 697L237 696Z" fill="#1c1c1c" stroke="#303030"></path><path d="M237 696L153 697L252 829Z" fill="#1d1d1d" stroke="#303030"></path><path d="M125 589L153 697L231 582Z" fill="#1c1c1c" stroke="#303030"></path><path d="M252 829L232 950L401 965Z" fill="#1e1e1e" stroke="#303030"></path><path d="M1158 1080L1283 1080L1175 979Z" fill="#1d1d1d" stroke="#303030"></path><path d="M144 495L125 589L231 582Z" fill="#1f1f1f" stroke="#303030"></path><path d="M1560 714L1513 606L1382 731Z" fill="#1c1c1c" stroke="#303030"></path><path d="M1421 590L1547 499L1384 457Z" fill="#1c1c1c" stroke="#303030"></path><path d="M1511 831L1382 731L1388 863Z" fill="#1d1d1d" stroke="#303030"></path><path d="M1518 333L1431 228L1421 339Z" fill="#1c1c1c" stroke="#303030"></path><path d="M1421 339L1431 228L1297 240Z" fill="#1c1c1c" stroke="#303030"></path><path d="M1281 109L1267 0L1151 0Z" fill="#1f1f1f" stroke="#303030"></path><path d="M401 105L247 115L380 223Z" fill="#1d1d1d" stroke="#303030"></path><path d="M103 254L106 376L253 343Z" fill="#1c1c1c" stroke="#303030"></path><path d="M513 0L403 0L401 105Z" fill="#1d1d1d" stroke="#303030"></path><path d="M127 848L232 950L252 829Z" fill="#1c1c1c" stroke="#303030"></path><path d="M1283 1080L1402 976L1284 951Z" fill="#1d1d1d" stroke="#303030"></path><path d="M1404 96L1267 0L1281 109Z" fill="#1c1c1c" stroke="#303030"></path><path d="M278 0L247 115L401 105Z" fill="#1f1f1f" stroke="#303030"></path><path d="M1671 575L1547 499L1513 606Z" fill="#1c1c1c" stroke="#303030"></path><path d="M1513 606L1547 499L1421 590Z" fill="#1c1c1c" stroke="#303030"></path><path d="M1547 499L1518 333L1384 457Z" fill="#1c1c1c" stroke="#303030"></path><path d="M1431 228L1404 96L1297 240Z" fill="#1d1d1d" stroke="#303030"></path><path d="M103 254L253 343L268 267Z" fill="#1d1d1d" stroke="#303030"></path><path d="M0 491L0 605L125 589Z" fill="#1d1d1d" stroke="#303030"></path><path d="M1533 969L1511 831L1388 863Z" fill="#1f1f1f" stroke="#303030"></path><path d="M0 746L127 848L153 697Z" fill="#1e1e1e" stroke="#303030"></path><path d="M153 697L127 848L252 829Z" fill="#1c1c1c" stroke="#303030"></path><path d="M107 970L127 848L0 943Z" fill="#1e1e1e" stroke="#303030"></path><path d="M1533 114L1404 96L1431 228Z" fill="#1e1e1e" stroke="#303030"></path><path d="M1511 831L1560 714L1382 731Z" fill="#1c1c1c" stroke="#303030"></path><path d="M1283 1080L1381 1080L1402 976Z" fill="#1c1c1c" stroke="#303030"></path><path d="M1402 976L1533 969L1388 863Z" fill="#1d1d1d" stroke="#303030"></path><path d="M123 1080L245 1080L232 950Z" fill="#1d1d1d" stroke="#303030"></path><path d="M232 950L245 1080L401 965Z" fill="#1d1d1d" stroke="#303030"></path><path d="M247 115L103 254L268 267Z" fill="#1c1c1c" stroke="#303030"></path><path d="M403 0L278 0L401 105Z" fill="#1d1d1d" stroke="#303030"></path><path d="M247 115L126 99L103 254Z" fill="#1e1e1e" stroke="#303030"></path><path d="M1660 224L1524 225L1518 333Z" fill="#1d1d1d" stroke="#303030"></path><path d="M1518 333L1524 225L1431 228Z" fill="#1c1c1c" stroke="#303030"></path><path d="M127 848L107 970L232 950Z" fill="#1d1d1d" stroke="#303030"></path><path d="M0 605L153 697L125 589Z" fill="#1d1d1d" stroke="#303030"></path><path d="M125 589L144 495L0 491Z" fill="#1f1f1f" stroke="#303030"></path><path d="M0 491L144 495L106 376Z" fill="#1d1d1d" stroke="#303030"></path><path d="M1510 1080L1533 969L1402 976Z" fill="#1d1d1d" stroke="#303030"></path><path d="M1682 846L1675 724L1560 714Z" fill="#1e1e1e" stroke="#303030"></path><path d="M0 348L0 491L106 376Z" fill="#1d1d1d" stroke="#303030"></path><path d="M1404 96L1428 0L1267 0Z" fill="#1d1d1d" stroke="#303030"></path><path d="M1533 114L1428 0L1404 96Z" fill="#1c1c1c" stroke="#303030"></path><path d="M115 0L126 99L247 115Z" fill="#1d1d1d" stroke="#303030"></path><path d="M103 254L0 348L106 376Z" fill="#1c1c1c" stroke="#303030"></path><path d="M0 605L0 746L153 697Z" fill="#1e1e1e" stroke="#303030"></path><path d="M1660 224L1533 114L1524 225Z" fill="#1e1e1e" stroke="#303030"></path><path d="M1524 225L1533 114L1431 228Z" fill="#1d1d1d" stroke="#303030"></path><path d="M1669 384L1518 333L1547 499Z" fill="#1d1d1d" stroke="#303030"></path><path d="M0 253L0 348L103 254Z" fill="#1e1e1e" stroke="#303030"></path><path d="M1675 724L1671 575L1560 714Z" fill="#1c1c1c" stroke="#303030"></path><path d="M1560 714L1671 575L1513 606Z" fill="#1d1d1d" stroke="#303030"></path><path d="M1381 1080L1510 1080L1402 976Z" fill="#1f1f1f" stroke="#303030"></path><path d="M1682 846L1560 714L1511 831Z" fill="#1e1e1e" stroke="#303030"></path><path d="M0 1080L123 1080L107 970Z" fill="#1c1c1c" stroke="#303030"></path><path d="M107 970L123 1080L232 950Z" fill="#1d1d1d" stroke="#303030"></path><path d="M1686 486L1669 384L1547 499Z" fill="#1c1c1c" stroke="#303030"></path><path d="M0 746L0 856L127 848Z" fill="#1e1e1e" stroke="#303030"></path><path d="M1671 575L1686 486L1547 499Z" fill="#1c1c1c" stroke="#303030"></path><path d="M1682 846L1511 831L1533 969Z" fill="#1e1e1e" stroke="#303030"></path><path d="M1671 575L1804 500L1686 486Z" fill="#1e1e1e" stroke="#303030"></path><path d="M0 143L0 253L103 254Z" fill="#1d1d1d" stroke="#303030"></path><path d="M0 856L0 943L127 848Z" fill="#1d1d1d" stroke="#303030"></path><path d="M278 0L115 0L247 115Z" fill="#1d1d1d" stroke="#303030"></path><path d="M126 99L0 143L103 254Z" fill="#1d1d1d" stroke="#303030"></path><path d="M1819 260L1660 224L1669 384Z" fill="#1c1c1c" stroke="#303030"></path><path d="M1669 384L1660 224L1518 333Z" fill="#1d1d1d" stroke="#303030"></path><path d="M1533 114L1554 0L1428 0Z" fill="#1d1d1d" stroke="#303030"></path><path d="M1684 937L1682 846L1533 969Z" fill="#1c1c1c" stroke="#303030"></path><path d="M1675 724L1817 583L1671 575Z" fill="#1d1d1d" stroke="#303030"></path><path d="M0 0L0 143L126 99Z" fill="#1e1e1e" stroke="#303030"></path><path d="M1664 125L1554 0L1533 114Z" fill="#1d1d1d" stroke="#303030"></path><path d="M1663 1080L1684 937L1533 969Z" fill="#1f1f1f" stroke="#303030"></path><path d="M1774 823L1780 740L1675 724Z" fill="#1e1e1e" stroke="#303030"></path><path d="M1778 121L1664 125L1660 224Z" fill="#1d1d1d" stroke="#303030"></path><path d="M1660 224L1664 125L1533 114Z" fill="#1c1c1c" stroke="#303030"></path><path d="M0 943L0 1080L107 970Z" fill="#1c1c1c" stroke="#303030"></path><path d="M1774 823L1675 724L1682 846Z" fill="#1e1e1e" stroke="#303030"></path><path d="M1686 486L1819 382L1669 384Z" fill="#1e1e1e" stroke="#303030"></path><path d="M1817 583L1804 500L1671 575Z" fill="#1f1f1f" stroke="#303030"></path><path d="M1781 944L1774 823L1682 846Z" fill="#1c1c1c" stroke="#303030"></path><path d="M1510 1080L1663 1080L1533 969Z" fill="#1c1c1c" stroke="#303030"></path><path d="M1781 944L1682 846L1684 937Z" fill="#1c1c1c" stroke="#303030"></path><path d="M1780 740L1817 583L1675 724Z" fill="#1e1e1e" stroke="#303030"></path><path d="M115 0L0 0L126 99Z" fill="#1e1e1e" stroke="#303030"></path><path d="M1920 592L1817 583L1920 728Z" fill="#1d1d1d" stroke="#303030"></path><path d="M1804 500L1819 382L1686 486Z" fill="#1c1c1c" stroke="#303030"></path><path d="M1920 475L1819 382L1804 500Z" fill="#1d1d1d" stroke="#303030"></path><path d="M1778 121L1675 0L1664 125Z" fill="#1d1d1d" stroke="#303030"></path><path d="M1664 125L1675 0L1554 0Z" fill="#1e1e1e" stroke="#303030"></path><path d="M1783 1080L1781 944L1684 937Z" fill="#1f1f1f" stroke="#303030"></path><path d="M1920 728L1817 583L1780 740Z" fill="#1d1d1d" stroke="#303030"></path><path d="M1819 382L1819 260L1669 384Z" fill="#1d1d1d" stroke="#303030"></path><path d="M1819 260L1778 121L1660 224Z" fill="#1d1d1d" stroke="#303030"></path><path d="M1663 1080L1783 1080L1684 937Z" fill="#1e1e1e" stroke="#303030"></path><path d="M1920 728L1780 740L1920 830Z" fill="#1c1c1c" stroke="#303030"></path><path d="M1780 740L1774 823L1920 830Z" fill="#1d1d1d" stroke="#303030"></path><path d="M1817 583L1920 475L1804 500Z" fill="#1c1c1c" stroke="#303030"></path><path d="M1819 382L1920 367L1819 260Z" fill="#1f1f1f" stroke="#303030"></path><path d="M1920 99L1782 0L1778 121Z" fill="#1d1d1d" stroke="#303030"></path><path d="M1920 592L1920 475L1817 583Z" fill="#1d1d1d" stroke="#303030"></path><path d="M1920 830L1774 823L1781 944Z" fill="#1e1e1e" stroke="#303030"></path><path d="M1920 99L1778 121L1819 260Z" fill="#1c1c1c" stroke="#303030"></path><path d="M1778 121L1782 0L1675 0Z" fill="#1e1e1e" stroke="#303030"></path><path d="M1920 475L1920 367L1819 382Z" fill="#1f1f1f" stroke="#303030"></path><path d="M1920 985L1920 830L1781 944Z" fill="#1f1f1f" stroke="#303030"></path><path d="M1920 367L1920 263L1819 260Z" fill="#1c1c1c" stroke="#303030"></path><path d="M1783 1080L1920 985L1781 944Z" fill="#1d1d1d" stroke="#303030"></path><path d="M1920 263L1920 99L1819 260Z" fill="#1c1c1c" stroke="#303030"></path><path d="M1783 1080L1920 1080L1920 985Z" fill="#1d1d1d" stroke="#303030"></path><path d="M1920 99L1920 0L1782 0Z" fill="#1d1d1d" stroke="#303030"></path></g></svg>